<svg width="1920" height="1080" viewBox="0 0 1920 1080" fill="none" xmlns="http://www.w3.org/2000/svg">
<g clip-path="url(#clip0)">
<rect width="1920" height="1080" fill="#E1E1E1"/>
<rect y="885.251" width="1920" height="194.749" fill="#C4C4C4"/>
<rect y="243.273" width="1920" height="641.978" fill="#C4C4C4"/>
<path d="M1539.2 885.251C1016.8 885.251 1279.88 885.251 960 885.251C640.117 885.251 960 885.251 380.801 885.251C380.801 565.368 640.117 306.052 960 306.052C1279.88 306.052 1539.2 565.368 1539.2 885.251Z" fill="#E1E1E1"/>
<line y1="203.863" x2="1920" y2="203.863" stroke="#C4C4C4" stroke-width="12"/>
<line x1="6" y1="201.734" x2="6" y2="243.273" stroke="#C4C4C4" stroke-width="12"/>
<line x1="654.799" y1="201.734" x2="654.799" y2="243.273" stroke="#C4C4C4" stroke-width="12"/>
<line x1="330.4" y1="201.734" x2="330.4" y2="243.273" stroke="#C4C4C4" stroke-width="12"/>
<line x1="979.199" y1="201.734" x2="979.199" y2="243.273" stroke="#C4C4C4" stroke-width="12"/>
<line x1="1498.24" y1="201.734" x2="1498.24" y2="243.273" stroke="#C4C4C4" stroke-width="12"/>
<line x1="168.2" y1="201.734" x2="168.2" y2="243.273" stroke="#C4C4C4" stroke-width="12"/>
<line x1="816.999" y1="201.734" x2="816.999" y2="243.273" stroke="#C4C4C4" stroke-width="12"/>
<line x1="1336.04" y1="201.734" x2="1336.04" y2="243.273" stroke="#C4C4C4" stroke-width="12"/>
<line x1="492.599" y1="201.734" x2="492.599" y2="243.273" stroke="#C4C4C4" stroke-width="12"/>
<line x1="1141.4" y1="201.734" x2="1141.4" y2="243.273" stroke="#C4C4C4" stroke-width="12"/>
<line x1="1660.44" y1="201.734" x2="1660.44" y2="243.273" stroke="#C4C4C4" stroke-width="12"/>
<line x1="1822.64" y1="201.734" x2="1822.64" y2="243.273" stroke="#C4C4C4" stroke-width="12"/>
<line x1="38.44" y1="201.734" x2="38.44" y2="243.273" stroke="#C4C4C4" stroke-width="12"/>
<line x1="687.239" y1="201.734" x2="687.239" y2="243.273" stroke="#C4C4C4" stroke-width="12"/>
<line x1="362.84" y1="201.734" x2="362.84" y2="243.273" stroke="#C4C4C4" stroke-width="12"/>
<line x1="1011.64" y1="201.734" x2="1011.64" y2="243.273" stroke="#C4C4C4" stroke-width="12"/>
<line x1="1530.68" y1="201.734" x2="1530.68" y2="243.273" stroke="#C4C4C4" stroke-width="12"/>
<line x1="200.64" y1="201.734" x2="200.64" y2="243.273" stroke="#C4C4C4" stroke-width="12"/>
<line x1="849.439" y1="201.734" x2="849.439" y2="243.273" stroke="#C4C4C4" stroke-width="12"/>
<line x1="1368.48" y1="201.734" x2="1368.48" y2="243.273" stroke="#C4C4C4" stroke-width="12"/>
<line x1="525.039" y1="201.734" x2="525.039" y2="243.273" stroke="#C4C4C4" stroke-width="12"/>
<line x1="1173.84" y1="201.734" x2="1173.84" y2="243.273" stroke="#C4C4C4" stroke-width="12"/>
<line x1="1692.88" y1="201.734" x2="1692.88" y2="243.273" stroke="#C4C4C4" stroke-width="12"/>
<line x1="1855.08" y1="201.734" x2="1855.08" y2="243.273" stroke="#C4C4C4" stroke-width="12"/>
<line x1="70.8799" y1="201.734" x2="70.8799" y2="243.273" stroke="#C4C4C4" stroke-width="12"/>
<line x1="719.679" y1="201.734" x2="719.679" y2="243.273" stroke="#C4C4C4" stroke-width="12"/>
<line x1="395.28" y1="201.734" x2="395.28" y2="243.273" stroke="#C4C4C4" stroke-width="12"/>
<line x1="1044.08" y1="201.734" x2="1044.08" y2="243.273" stroke="#C4C4C4" stroke-width="12"/>
<line x1="1563.12" y1="201.734" x2="1563.12" y2="243.273" stroke="#C4C4C4" stroke-width="12"/>
<line x1="233.08" y1="201.734" x2="233.08" y2="243.273" stroke="#C4C4C4" stroke-width="12"/>
<line x1="881.879" y1="201.734" x2="881.879" y2="243.273" stroke="#C4C4C4" stroke-width="12"/>
<line x1="1400.92" y1="201.734" x2="1400.92" y2="243.273" stroke="#C4C4C4" stroke-width="12"/>
<line x1="557.479" y1="201.734" x2="557.479" y2="243.273" stroke="#C4C4C4" stroke-width="12"/>
<line x1="1206.28" y1="201.734" x2="1206.28" y2="243.273" stroke="#C4C4C4" stroke-width="12"/>
<line x1="1725.32" y1="201.734" x2="1725.32" y2="243.273" stroke="#C4C4C4" stroke-width="12"/>
<line x1="1887.52" y1="201.734" x2="1887.52" y2="243.273" stroke="#C4C4C4" stroke-width="12"/>
<line x1="103.32" y1="205.55" x2="103.32" y2="247.089" stroke="#C4C4C4" stroke-width="12"/>
<line x1="752.119" y1="205.55" x2="752.119" y2="247.089" stroke="#C4C4C4" stroke-width="12"/>
<line x1="427.719" y1="205.55" x2="427.719" y2="247.089" stroke="#C4C4C4" stroke-width="12"/>
<line x1="1076.52" y1="205.55" x2="1076.52" y2="247.089" stroke="#C4C4C4" stroke-width="12"/>
<line x1="1595.56" y1="205.55" x2="1595.56" y2="247.089" stroke="#C4C4C4" stroke-width="12"/>
<line x1="265.52" y1="205.55" x2="265.52" y2="247.089" stroke="#C4C4C4" stroke-width="12"/>
<line x1="914.319" y1="205.55" x2="914.319" y2="247.089" stroke="#C4C4C4" stroke-width="12"/>
<line x1="1433.36" y1="205.55" x2="1433.36" y2="247.089" stroke="#C4C4C4" stroke-width="12"/>
<line x1="589.919" y1="205.55" x2="589.919" y2="247.089" stroke="#C4C4C4" stroke-width="12"/>
<line x1="1238.72" y1="205.55" x2="1238.72" y2="247.089" stroke="#C4C4C4" stroke-width="12"/>
<line x1="1757.76" y1="205.55" x2="1757.76" y2="247.089" stroke="#C4C4C4" stroke-width="12"/>
<line x1="1919.96" y1="205.55" x2="1919.96" y2="247.089" stroke="#C4C4C4" stroke-width="12"/>
<line x1="135.76" y1="205.55" x2="135.76" y2="247.089" stroke="#C4C4C4" stroke-width="12"/>
<line x1="784.559" y1="205.55" x2="784.559" y2="247.089" stroke="#C4C4C4" stroke-width="12"/>
<line x1="1303.6" y1="205.55" x2="1303.6" y2="247.089" stroke="#C4C4C4" stroke-width="12"/>
<line x1="460.159" y1="205.55" x2="460.159" y2="247.089" stroke="#C4C4C4" stroke-width="12"/>
<line x1="1108.96" y1="205.55" x2="1108.96" y2="247.089" stroke="#C4C4C4" stroke-width="12"/>
<line x1="1628" y1="205.55" x2="1628" y2="247.089" stroke="#C4C4C4" stroke-width="12"/>
<line x1="297.96" y1="205.55" x2="297.96" y2="247.089" stroke="#C4C4C4" stroke-width="12"/>
<line x1="946.759" y1="205.55" x2="946.759" y2="247.089" stroke="#C4C4C4" stroke-width="12"/>
<line x1="1465.8" y1="205.55" x2="1465.8" y2="247.089" stroke="#C4C4C4" stroke-width="12"/>
<line x1="622.359" y1="205.55" x2="622.359" y2="247.089" stroke="#C4C4C4" stroke-width="12"/>
<line x1="1271.16" y1="205.55" x2="1271.16" y2="247.089" stroke="#C4C4C4" stroke-width="12"/>
<line x1="1790.2" y1="205.55" x2="1790.2" y2="247.089" stroke="#C4C4C4" stroke-width="12"/>
<g clip-path="url(#clip1)">
<path d="M1393.64 665.11L1355.56 627.021L1335.43 647.145L1373.52 685.234L1393.64 665.11Z" fill="#C4C4C4" stroke="black"/>
<path d="M1307.87 620.878C1333.93 620.878 1355.06 599.751 1355.06 573.689C1355.06 547.627 1333.93 526.5 1307.87 526.5C1281.8 526.5 1260.68 547.627 1260.68 573.689C1260.68 599.751 1281.8 620.878 1307.87 620.878Z" fill="#C4C4C4" stroke="black"/>
<path d="M1355.06 626.814H1261.93V793.085H1355.06V626.814Z" fill="#C4C4C4" stroke="black"/>
<path d="M1261.43 627.021L1223.34 665.11L1243.46 685.234L1281.55 647.145L1261.43 627.021Z" fill="#C4C4C4" stroke="black"/>
<path d="M1262.18 799.02H1355.06V878.75H1308.62H1262.18V799.02Z" fill="#C4C4C4" stroke="black"/>
<path d="M1287.26 878.645L1308.62 827.778L1329.97 878.645H1287.26Z" fill="#E1E1E1" stroke="black"/>
<path d="M1272.79 707.068C1271.92 707.068 1271.14 706.927 1270.45 706.643C1269.75 706.36 1269.2 705.941 1268.78 705.385C1268.37 704.83 1268.16 704.161 1268.13 703.379H1271.23C1271.27 703.821 1271.43 704.161 1271.69 704.399C1271.95 704.626 1272.29 704.739 1272.71 704.739C1273.14 704.739 1273.48 704.643 1273.73 704.45C1273.98 704.246 1274.1 703.969 1274.1 703.617C1274.1 703.323 1274 703.079 1273.79 702.886C1273.6 702.694 1273.36 702.535 1273.06 702.41C1272.78 702.286 1272.37 702.144 1271.84 701.985C1271.07 701.747 1270.44 701.509 1269.95 701.271C1269.46 701.033 1269.05 700.682 1268.69 700.217C1268.34 699.753 1268.17 699.146 1268.17 698.398C1268.17 697.288 1268.57 696.421 1269.37 695.797C1270.18 695.163 1271.23 694.845 1272.52 694.845C1273.83 694.845 1274.89 695.163 1275.7 695.797C1276.5 696.421 1276.93 697.293 1276.99 698.415H1273.85C1273.82 698.03 1273.68 697.73 1273.42 697.514C1273.16 697.288 1272.83 697.174 1272.42 697.174C1272.07 697.174 1271.78 697.271 1271.57 697.463C1271.35 697.645 1271.24 697.911 1271.24 698.262C1271.24 698.648 1271.43 698.948 1271.79 699.163C1272.15 699.379 1272.72 699.611 1273.49 699.86C1274.26 700.121 1274.88 700.37 1275.36 700.608C1275.85 700.846 1276.26 701.192 1276.62 701.645C1276.97 702.099 1277.14 702.682 1277.14 703.396C1277.14 704.076 1276.97 704.694 1276.62 705.249C1276.28 705.805 1275.78 706.247 1275.12 706.575C1274.46 706.904 1273.69 707.068 1272.79 707.068ZM1281.84 697.344V699.758H1285.73V702.002H1281.84V704.62H1286.24V706.949H1278.93V695.015H1286.24V697.344H1281.84ZM1287.64 700.965C1287.64 699.787 1287.89 698.738 1288.4 697.82C1288.91 696.891 1289.62 696.171 1290.53 695.661C1291.44 695.14 1292.48 694.879 1293.64 694.879C1295.05 694.879 1296.27 695.253 1297.28 696.001C1298.28 696.749 1298.96 697.769 1299.3 699.061H1296.1C1295.86 698.563 1295.52 698.183 1295.08 697.922C1294.65 697.662 1294.16 697.531 1293.6 697.531C1292.71 697.531 1291.98 697.843 1291.43 698.466C1290.87 699.09 1290.59 699.923 1290.59 700.965C1290.59 702.008 1290.87 702.841 1291.43 703.464C1291.98 704.088 1292.71 704.399 1293.6 704.399C1294.16 704.399 1294.65 704.269 1295.08 704.008C1295.52 703.748 1295.86 703.368 1296.1 702.869H1299.3C1298.96 704.161 1298.28 705.181 1297.28 705.929C1296.27 706.666 1295.05 707.034 1293.64 707.034C1292.48 707.034 1291.44 706.779 1290.53 706.269C1289.62 705.748 1288.91 705.028 1288.4 704.11C1287.89 703.192 1287.64 702.144 1287.64 700.965ZM1303.93 695.015V702.155C1303.93 702.869 1304.11 703.419 1304.46 703.804C1304.81 704.19 1305.33 704.382 1306.01 704.382C1306.69 704.382 1307.21 704.19 1307.57 703.804C1307.94 703.419 1308.12 702.869 1308.12 702.155V695.015H1311.02V702.138C1311.02 703.204 1310.8 704.105 1310.34 704.841C1309.89 705.578 1309.28 706.133 1308.51 706.507C1307.75 706.881 1306.9 707.068 1305.96 707.068C1305.02 707.068 1304.17 706.887 1303.42 706.524C1302.69 706.15 1302.1 705.595 1301.67 704.858C1301.24 704.11 1301.03 703.204 1301.03 702.138V695.015H1303.93ZM1319.15 706.949L1316.67 702.444H1315.97V706.949H1313.06V695.015H1317.94C1318.88 695.015 1319.68 695.18 1320.34 695.508C1321.01 695.837 1321.51 696.29 1321.84 696.868C1322.17 697.435 1322.33 698.07 1322.33 698.772C1322.33 699.566 1322.1 700.274 1321.65 700.897C1321.21 701.521 1320.55 701.963 1319.68 702.223L1322.43 706.949H1319.15ZM1315.97 700.387H1317.77C1318.31 700.387 1318.7 700.257 1318.96 699.996C1319.24 699.736 1319.37 699.367 1319.37 698.891C1319.37 698.438 1319.24 698.081 1318.96 697.82C1318.7 697.56 1318.31 697.429 1317.77 697.429H1315.97V700.387ZM1327.06 695.015V706.949H1324.16V695.015H1327.06ZM1337.75 695.015V697.344H1334.59V706.949H1331.68V697.344H1328.52V695.015H1337.75ZM1349.45 695.015L1345.32 703.005V706.949H1342.41V703.005L1338.28 695.015H1341.58L1343.89 700.013L1346.18 695.015H1349.45Z" fill="white"/>
<path d="M1287.64 879.243L1288.02 878.154L1291.26 875.705C1297.84 875.693 1311.08 875.675 1311.32 875.705C1311.56 875.735 1323.22 877.06 1329.02 877.718L1331.28 882.173L1300 882.787L1287.64 879.243Z" fill="#E1E1E1"/>
<path d="M1261.43 627.314H1302.11V666.485L1262.41 666.967V666.449H1261.54L1261.43 627.314Z" fill="#C4C4C4"/>
<path d="M1356.04 627.314H1315.36V666.563H1356.04V627.314Z" fill="#C4C4C4"/>
<path d="M1261.43 626.746L1260.94 627.238L1261.43 627.73L1261.92 627.238L1261.43 626.746Z" fill="black"/>
<path d="M1355.34 626.536L1354.85 627.028L1356.1 628.281L1356.6 627.789L1355.34 626.536Z" fill="black"/>
</g>
<rect x="920.28" y="639.067" width="246.185" height="246.185" fill="#C4C4C4"/>
<path d="M1004.73 769.313L999.061 761.873V769.313H994.957V752.465H999.061V759.857L1004.68 752.465H1009.5L1002.97 760.721L1009.74 769.313H1004.73ZM1022.18 766.337H1015.89L1014.88 769.313H1010.59L1016.68 752.465H1021.44L1027.53 769.313H1023.19L1022.18 766.337ZM1021.12 763.169L1019.04 757.001L1016.97 763.169H1021.12ZM1037.98 769.313L1034.47 762.953H1033.49V769.313H1029.39V752.465H1036.27C1037.6 752.465 1038.73 752.697 1039.66 753.161C1040.6 753.625 1041.31 754.265 1041.77 755.081C1042.23 755.881 1042.47 756.777 1042.47 757.769C1042.47 758.889 1042.15 759.889 1041.51 760.769C1040.88 761.649 1039.95 762.273 1038.72 762.641L1042.61 769.313H1037.98ZM1033.49 760.049H1036.03C1036.79 760.049 1037.35 759.865 1037.71 759.497C1038.1 759.129 1038.29 758.609 1038.29 757.937C1038.29 757.297 1038.1 756.793 1037.71 756.425C1037.35 756.057 1036.79 755.873 1036.03 755.873H1033.49V760.049ZM1057.16 752.465V755.753H1052.7V769.313H1048.6V755.753H1044.13V752.465H1057.16ZM1067.19 769.481C1065.61 769.481 1064.15 769.113 1062.82 768.377C1061.51 767.641 1060.46 766.617 1059.68 765.305C1058.91 763.977 1058.53 762.489 1058.53 760.841C1058.53 759.193 1058.91 757.713 1059.68 756.401C1060.46 755.089 1061.51 754.065 1062.82 753.329C1064.15 752.593 1065.61 752.225 1067.19 752.225C1068.77 752.225 1070.22 752.593 1071.53 753.329C1072.86 754.065 1073.9 755.089 1074.65 756.401C1075.42 757.713 1075.81 759.193 1075.81 760.841C1075.81 762.489 1075.42 763.977 1074.65 765.305C1073.89 766.617 1072.85 767.641 1071.53 768.377C1070.22 769.113 1068.77 769.481 1067.19 769.481ZM1067.19 765.737C1068.53 765.737 1069.61 765.289 1070.41 764.393C1071.22 763.497 1071.63 762.313 1071.63 760.841C1071.63 759.353 1071.22 758.169 1070.41 757.289C1069.61 756.393 1068.53 755.945 1067.19 755.945C1065.83 755.945 1064.74 756.385 1063.93 757.265C1063.13 758.145 1062.73 759.337 1062.73 760.841C1062.73 762.329 1063.13 763.521 1063.93 764.417C1064.74 765.297 1065.83 765.737 1067.19 765.737ZM1093.16 769.313H1089.06L1082.19 758.921V769.313H1078.09V752.465H1082.19L1089.06 762.905V752.465H1093.16V769.313Z" fill="white"/>
<rect x="565.08" y="844.095" width="201.978" height="41.1567" fill="#C4C4C4"/>
<path d="M697.005 844.095H608.537C608.537 844.095 613.319 830.083 616.368 820.814C619.416 811.545 616.537 789.268 604.174 781.139C591.811 773.01 593.504 751.162 593.504 751.162C593.504 751.162 614.335 759.8 628.9 769.961C643.465 780.123 647.843 808.785 657.183 799.768C666.522 790.751 665.82 773.348 660.062 767.268C654.304 761.187 651.933 716.952 651.933 716.952C651.933 716.952 697.998 748.283 700.206 774.543C702.414 800.803 670.856 820.361 687.983 822.851C705.111 825.341 715.441 810.776 709.683 802.139C703.925 793.502 718.659 753.703 718.659 753.703C718.659 753.703 750.837 801.8 733.672 820.814C716.507 839.827 697.005 844.095 697.005 844.095Z" fill="#C4C4C4"/>
<circle cx="593.426" cy="666.967" r="54.8457" fill="#C4C4C4"/>
<circle cx="737.572" cy="568.229" r="27.4229" fill="#C4C4C4"/>
<circle cx="641.943" cy="652.222" r="54.8457" fill="#C4C4C4"/>
<circle cx="761.831" cy="560.856" r="27.4229" fill="#C4C4C4"/>
<circle cx="593.426" cy="612.121" r="54.8457" fill="#C4C4C4"/>
<circle cx="737.572" cy="540.806" r="27.4229" fill="#C4C4C4"/>
<circle cx="641.943" cy="588.214" r="54.8457" fill="#C4C4C4"/>
<circle cx="761.831" cy="528.852" r="27.4229" fill="#C4C4C4"/>
</g>
<defs>
<clipPath id="clip0">
<rect width="1920" height="1080" fill="white"/>
</clipPath>
<clipPath id="clip1">
<rect width="173" height="374" fill="white" transform="translate(1221.92 526)"/>
</clipPath>
</defs>
</svg>
