<svg width="253" height="71" viewBox="0 0 253 71" fill="none" xmlns="http://www.w3.org/2000/svg">
<g clip-path="url(#clip0)">
<path d="M34.5 8.27051C18.7959 8.27051 6.0625 21.0039 6.0625 36.708C6.0625 52.4121 18.7959 65.1455 34.5 65.1455C50.2041 65.1455 62.9375 52.4121 62.9375 36.708C62.9375 21.0039 50.2041 8.27051 34.5 8.27051ZM48.1665 29.7065C48.1855 30.0049 48.1855 30.3159 48.1855 30.6206C48.1855 39.939 41.0889 50.6729 28.1206 50.6729C24.1216 50.6729 20.4146 49.5112 17.2915 47.5117C17.8628 47.5752 18.4087 47.6006 18.9927 47.6006C22.2935 47.6006 25.3276 46.4834 27.7461 44.5918C24.6484 44.5283 22.0459 42.4971 21.1572 39.7041C22.2427 39.8628 23.2202 39.8628 24.3374 39.5771C22.7424 39.2531 21.3088 38.3869 20.2801 37.1256C19.2514 35.8643 18.6911 34.2858 18.6943 32.6582V32.5693C19.6274 33.0962 20.7256 33.4199 21.8745 33.4644C20.9087 32.8207 20.1166 31.9486 19.5685 30.9255C19.0204 29.9024 18.7332 28.7598 18.7324 27.5991C18.7324 26.2852 19.0752 25.0854 19.6909 24.0444C21.4613 26.2238 23.6705 28.0063 26.1748 29.276C28.6792 30.5456 31.4227 31.2741 34.2271 31.4141C33.2305 26.6216 36.8105 22.7432 41.1143 22.7432C43.1455 22.7432 44.9736 23.5937 46.2622 24.9648C47.8555 24.6665 49.3789 24.0698 50.7373 23.27C50.2104 24.9014 49.106 26.2788 47.6396 27.1484C49.0615 26.9961 50.4326 26.6025 51.7021 26.0503C50.7437 27.4595 49.5439 28.71 48.1665 29.7065V29.7065Z" fill="black"/>
<path d="M231.524 25.6828C233.87 25.6124 236.096 24.6309 237.731 22.9465C239.366 21.2621 240.28 19.0072 240.28 16.66C240.28 14.3128 239.366 12.0579 237.731 10.3735C236.096 8.6891 233.87 7.70762 231.524 7.63721H213.476C211.129 7.70762 208.903 8.6891 207.268 10.3735C205.634 12.0579 204.719 14.3128 204.719 16.66C204.719 19.0072 205.634 21.2621 207.268 22.9465C208.903 24.6309 211.129 25.6124 213.476 25.6828C211.109 25.7238 208.853 26.6928 207.194 28.3809C205.535 30.0691 204.605 32.3414 204.605 34.7084C204.605 37.0754 205.535 39.3476 207.194 41.0358C208.853 42.724 211.109 43.6929 213.476 43.7339C211.12 43.7916 208.881 44.7677 207.236 46.4537C205.591 48.1398 204.67 50.4023 204.67 52.758C204.67 55.1138 205.591 57.3763 207.236 59.0624C208.881 60.7484 211.12 61.7245 213.476 61.7822C215.869 61.7808 218.164 60.8292 219.856 59.1366C221.548 57.4439 222.499 55.1487 222.5 52.7553V25.6828H231.524Z" fill="black"/>
<path d="M231.524 43.7309C236.508 43.7309 240.548 39.6907 240.548 34.7068C240.548 29.7229 236.508 25.6826 231.524 25.6826C226.54 25.6826 222.5 29.7229 222.5 34.7068C222.5 39.6907 226.54 43.7309 231.524 43.7309Z" fill="black"/>
<g clip-path="url(#clip1)">
<path d="M153 36.8926C153 20.3195 139.562 6.89258 123 6.89258C106.427 6.89258 93 20.3195 93 36.8926C93 51.8626 103.967 64.2751 118.312 66.5232V45.5663H110.694V36.8945H118.312V30.2813C118.312 22.7645 122.784 18.6132 129.639 18.6132C132.923 18.6132 136.359 19.1982 136.359 19.1982V26.5801H132.57C128.85 26.5801 127.688 28.8957 127.688 31.2676V36.8926H136.007L134.67 45.5645H127.688V66.5213C142.022 64.2732 153 51.8607 153 36.8907V36.8926Z" fill="black"/>
</g>
</g>
<defs>
<clipPath id="clip0">
<rect width="253" height="71" fill="white"/>
</clipPath>
<clipPath id="clip1">
<rect x="93" y="6.89258" width="60" height="60" fill="white"/>
</clipPath>
</defs>
</svg>
