<svg width="31" height="73" viewBox="0 0 31 73" fill="none" xmlns="http://www.w3.org/2000/svg">
<path d="M1.99866 51.6233C6.63931 50.3273 10.0362 52.6204 10.225 52.7478C13.5602 54.9992 10.3023 57.2286 14.0767 59.7764C10.3023 57.2286 9.56308 61.1582 6.22781 58.9068C6.03909 58.7794 2.64216 56.4863 1.99866 51.6233Z" fill="#303030"/>
<path d="M1.99855 51.6233C6.6392 50.3273 10.0361 52.6204 10.2249 52.7478C13.5601 54.9992 10.3022 57.2285 14.0766 59.7764C10.3022 57.2285 11.7088 58.1812 8.37353 55.9298C8.18481 55.8024 6.7894 54.7758 1.99855 51.6233Z" fill="#303030"/>
<path d="M26.467 26.9811C25.8527 31.7382 22.4041 33.9536 22.2125 34.0767C18.8266 36.252 18.0373 32.3968 14.2056 34.8585C18.0373 32.3968 14.6909 30.1843 18.0768 28.009C18.2684 27.8859 21.717 25.6704 26.467 26.9811Z" fill="#303030"/>
<path d="M26.467 26.981C25.8527 31.738 22.4041 33.9535 22.2125 34.0766C18.8266 36.2519 18.0373 32.3967 14.2056 34.8584C18.0373 32.3967 16.6064 33.3128 19.9923 31.1375C20.1839 31.0145 21.6788 30.1374 26.467 26.981Z" fill="#303030"/>
<line x1="14.3359" y1="15.3023" x2="14.335" y2="72.0047" stroke="#303030" stroke-width="3"/>
<path d="M19.2096 10.4883C19.2096 15.9724 14.22 20.4182 14.22 20.4182C14.22 20.2256 9.23047 15.9724 9.23047 10.4883C9.23047 5.00421 14.22 0.558472 14.22 0.558472C14.22 0.558472 19.2096 5.00421 19.2096 10.4883Z" fill="#303030"/>
<path d="M15.4681 9.33566C17.3531 14.489 14.1925 20.3648 14.1925 20.3648C14.1263 20.1838 7.97576 17.8852 6.09078 12.7319C4.20581 7.57851 7.3664 1.70277 7.3664 1.70277C7.3664 1.70277 13.5831 4.18229 15.4681 9.33566Z" fill="#303030"/>
<path d="M22.2944 12.7319C20.4094 17.8852 14.1926 20.3648 14.1926 20.3648C14.2588 20.1838 11.0321 14.489 12.917 9.33564C14.802 4.18227 21.0187 1.70275 21.0187 1.70275C21.0187 1.70275 24.1793 7.57849 22.2944 12.7319Z" fill="#303030"/>
</svg>
