<svg width="335" height="54" viewBox="0 0 335 54" fill="none" xmlns="http://www.w3.org/2000/svg">
<path d="M87.9629 31.2349C90.7276 30.4507 92.7514 31.8383 92.8638 31.9154C94.8513 33.2777 92.9102 34.6267 95.1588 36.1684C92.9102 34.6267 92.4696 37.0046 90.4827 35.6422C90.3702 35.5651 88.3465 34.1776 87.9629 31.2349Z" fill="#49796B"/>
<path d="M87.9629 31.2348C90.7276 30.4506 92.7514 31.8382 92.8638 31.9153C94.8508 33.2776 92.9102 34.6266 95.1588 36.1683C92.9102 34.6266 93.7479 35.203 91.7609 33.8407C91.6485 33.7636 90.8173 33.1424 87.9629 31.2348Z" fill="#A9BA9D"/>
<path d="M102.541 16.3237C102.174 19.2022 100.12 20.5428 100.006 20.6173C97.9885 21.9335 97.5182 19.6007 95.2354 21.0903C97.5182 19.6007 95.5247 18.2619 97.5419 16.9456C97.6558 16.8711 99.7103 15.5305 102.541 16.3237Z" fill="#49796B"/>
<path d="M102.541 16.3236C102.174 19.2021 100.12 20.5427 100.006 20.6172C97.9885 21.9335 97.5182 19.6007 95.2354 21.0903C97.5182 19.6007 96.6659 20.1551 98.6831 18.8388C98.797 18.7643 99.6877 18.2336 102.541 16.3236Z" fill="#A9BA9D"/>
<path d="M95.1753 9.25671L95.1748 43.5678" stroke="#49796B" stroke-width="3"/>
<path d="M98.2163 6.34374C98.2163 9.66219 95.2439 12.3524 95.2439 12.3524C95.2439 12.2358 92.2715 9.66219 92.2715 6.34374C92.2715 3.02524 95.2439 0.335083 95.2439 0.335083C95.2439 0.335083 98.2163 3.02524 98.2163 6.34374Z" fill="#B76E78"/>
<path d="M95.9879 5.64618C97.111 8.76453 95.2278 12.32 95.2278 12.32C95.1885 12.2105 91.5241 10.8196 90.401 7.70129C89.2785 4.58293 91.1611 1.02747 91.1611 1.02747C91.1611 1.02747 94.8649 2.52785 95.9879 5.64618Z" fill="#D07B87"/>
<path d="M100.055 7.70129C98.9317 10.8196 95.2279 12.32 95.2279 12.32C95.2672 12.2105 93.3448 8.76453 94.4678 5.64618C95.5908 2.52784 99.2946 1.02747 99.2946 1.02747C99.2946 1.02747 101.178 4.58293 100.055 7.70129Z" fill="#A56269"/>
<path d="M24.9243 9.33378V43.5677H23.4727V9.33378H24.9243ZM44.8122 9.33378L28.5535 25.6683L46.3606 43.5677H44.2799L26.4728 25.6683L42.7315 9.33378H44.8122ZM52.6631 10.801V9.33378H85.0353L72.6961 43.6167L66.4056 26.2062L60.1634 43.6167L47.824 9.33378H49.3725L60.1634 39.313L66.4056 21.9025L72.6961 39.313L82.9546 10.801H52.6631ZM106.939 42.1006H124.746L114.488 13.5886L103.697 43.5677H102.148L114.488 9.28488L126.827 43.5677H106.939V42.1006ZM154.065 37.3078C153.194 39.4597 151.968 41.1225 150.387 42.2962C148.806 43.4699 146.435 44.0568 143.274 44.0568C139.306 44.0568 136.435 42.8342 134.661 40.3889C132.886 37.911 131.999 34.0637 131.999 28.8471V24.0544C131.999 18.8378 132.886 15.0068 134.661 12.5616C136.435 10.0837 139.306 8.84473 143.274 8.84473C146.435 8.84473 148.806 9.4316 150.387 10.6053C151.968 11.7791 153.194 13.4419 154.065 15.5937L152.758 16.2295C152.016 14.3385 150.968 12.8876 149.613 11.8769C148.258 10.8336 146.145 10.3119 143.274 10.3119C141.693 10.3119 140.338 10.5238 139.209 10.9477C138.08 11.3389 137.064 12.0236 136.161 13.0017C135.258 13.9798 134.58 15.3981 134.128 17.2565C133.677 19.0823 133.451 21.3483 133.451 24.0544V28.8471C133.451 31.5533 133.677 33.8355 134.128 35.6939C134.58 37.5197 135.258 38.9217 136.161 39.8998C137.064 40.8779 138.08 41.5789 139.209 42.0028C140.338 42.394 141.693 42.5896 143.274 42.5896C146.145 42.5896 148.258 42.0843 149.613 41.0736C150.968 40.0302 152.016 38.5631 152.758 36.672L154.065 37.3078ZM163.497 43.5677H162.045V9.33378H163.497V43.5677ZM174.507 42.1006H192.314L182.055 13.5886L171.264 43.5677H169.716L182.055 9.28488L194.394 43.5677H174.507V42.1006ZM204.406 42.1006H217.762L211.907 25.8639L214.616 24.2989C216.842 23.06 217.955 21.0874 217.955 18.3813C217.955 13.3277 214.149 10.801 206.536 10.801H202.084V43.5677H200.632V9.33378H206.536C210.794 9.33378 214.004 10.1326 216.165 11.7302C218.326 13.2951 219.407 15.5122 219.407 18.3813C219.407 21.6417 218.052 24.0381 215.342 25.5705L213.697 26.4997L219.842 43.5677H204.406V42.1006ZM231.591 42.1006H246.592L229.269 11.828V43.5677H227.817V9.33378H229.511L247.608 40.9757V9.33378H249.06V43.5677H231.591V42.1006ZM260.66 43.5677H259.208V9.33378H260.66V43.5677ZM271.67 42.1006H289.477L279.219 13.5886L268.428 43.5677H266.88L279.219 9.28488L291.558 43.5677H271.67V42.1006Z" fill="black"/>
<path d="M318.41 34.4056L323 29.8256L327.59 34.4056L329 32.9956L323 26.9956L317 32.9956L318.41 34.4056Z" fill="black"/>
</svg>
