<svg width="57" height="86" viewBox="0 0 57 86" fill="none" xmlns="http://www.w3.org/2000/svg">
<path d="M2.36203 61.313C7.84702 59.7736 11.862 62.4973 12.0851 62.6487C16.0272 65.3229 12.1765 67.9709 16.6376 70.9973C12.1765 67.9709 11.3027 72.6386 7.36065 69.9643C7.13759 69.813 3.12261 67.0893 2.36203 61.313Z" fill="#49796B"/>
<path d="M2.36183 61.3129C7.84682 59.7735 11.8618 62.4972 12.0849 62.6485C16.027 65.3228 12.1763 67.9708 16.6374 70.9972C12.1763 67.9708 13.8388 69.1024 9.89669 66.4281C9.67363 66.2768 8.02434 65.0574 2.36183 61.3129Z" fill="#A9BA9D"/>
<path d="M31.2821 32.0428C30.556 37.6932 26.48 40.3248 26.2536 40.471C22.2516 43.0548 21.3187 38.4756 16.7898 41.3996C21.3187 38.4756 17.3635 35.8475 21.3654 33.2637C21.5919 33.1175 25.6679 30.4859 31.2821 32.0428Z" fill="#49796B"/>
<path d="M31.2822 32.0426C30.556 37.6931 26.48 40.3246 26.2536 40.4708C22.2516 43.0546 21.3187 38.4754 16.7898 41.3994C21.3187 38.4754 19.6275 39.5636 23.6295 36.9798C23.8559 36.8336 25.6228 35.7919 31.2822 32.0426Z" fill="#A9BA9D"/>
<line x1="16.6719" y1="18.1706" x2="16.6708" y2="85.522" stroke="#49796B" stroke-width="3"/>
<path d="M22.7049 12.4526C22.7049 18.9666 16.8075 24.2473 16.8075 24.2473C16.8075 24.0185 10.9102 18.9666 10.9102 12.4526C10.9102 5.93851 16.8075 0.657837 16.8075 0.657837C16.8075 0.657837 22.7049 5.93851 22.7049 12.4526Z" fill="#B76E78"/>
<path d="M18.2825 11.0834C20.5105 17.2046 16.7748 24.1839 16.7748 24.1839C16.6966 23.9689 9.42701 21.2387 7.19907 15.1175C4.97114 8.99627 8.70678 2.01703 8.70678 2.01703C8.70678 2.01703 16.0546 4.96222 18.2825 11.0834Z" fill="#D07B87"/>
<path d="M26.3512 15.1175C24.1233 21.2387 16.7754 24.1839 16.7754 24.1839C16.8537 23.9689 13.0398 17.2046 15.2677 11.0834C17.4957 4.96221 24.8435 2.01703 24.8435 2.01703C24.8435 2.01703 28.5791 8.99627 26.3512 15.1175Z" fill="#A56269"/>
</svg>
