<svg width="36" height="42" viewBox="0 0 36 42" fill="none" xmlns="http://www.w3.org/2000/svg">
<path d="M17.625 41.125C27.3579 41.125 35.25 33.2329 35.25 23.5C25.5171 23.5 17.625 31.3921 17.625 41.125ZM5.09167 18.1146C5.09167 20.8171 7.285 23.0104 9.9875 23.0104C11.0254 23.0104 11.9654 22.6971 12.7683 22.1488L12.7292 22.5208C12.7292 25.2233 14.9225 27.4167 17.625 27.4167C20.3275 27.4167 22.5208 25.2233 22.5208 22.5208L22.4817 22.1488C23.265 22.6971 24.2246 23.0104 25.2625 23.0104C27.965 23.0104 30.1583 20.8171 30.1583 18.1146C30.1583 16.1563 29.0029 14.4917 27.3579 13.7083C29.0029 12.925 30.1583 11.2604 30.1583 9.30208C30.1583 6.59958 27.965 4.40625 25.2625 4.40625C24.2246 4.40625 23.2846 4.71958 22.4817 5.26792L22.5208 4.89583C22.5208 2.19333 20.3275 0 17.625 0C14.9225 0 12.7292 2.19333 12.7292 4.89583L12.7683 5.26792C11.985 4.71958 11.0254 4.40625 9.9875 4.40625C7.285 4.40625 5.09167 6.59958 5.09167 9.30208C5.09167 11.2604 6.24708 12.925 7.89208 13.7083C6.24708 14.4917 5.09167 16.1563 5.09167 18.1146ZM17.625 8.8125C20.3275 8.8125 22.5208 11.0058 22.5208 13.7083C22.5208 16.4108 20.3275 18.6042 17.625 18.6042C14.9225 18.6042 12.7292 16.4108 12.7292 13.7083C12.7292 11.0058 14.9225 8.8125 17.625 8.8125ZM0 23.5C0 33.2329 7.89208 41.125 17.625 41.125C17.625 31.3921 9.73292 23.5 0 23.5Z" fill="#303030"/>
</svg>
