<svg width="617" height="106" viewBox="0 0 617 106" fill="none" xmlns="http://www.w3.org/2000/svg">
<path d="M174.511 61.313C179.996 59.7736 184.011 62.4973 184.234 62.6487C188.177 65.3229 184.326 67.9709 188.787 70.9973C184.326 67.9709 183.452 72.6386 179.51 69.9643C179.287 69.813 175.272 67.0893 174.511 61.313Z" fill="#49796B"/>
<path d="M174.511 61.3129C179.996 59.7735 184.011 62.4973 184.234 62.6486C188.176 65.3228 184.326 67.9709 188.787 70.9972C184.326 67.9709 185.988 69.1024 182.046 66.4282C181.823 66.2769 180.174 65.0575 174.511 61.3129Z" fill="#A9BA9D"/>
<path d="M203.432 32.0427C202.705 37.6931 198.629 40.3247 198.403 40.4709C194.401 43.0547 193.468 38.4755 188.939 41.3995C193.468 38.4755 189.513 35.8474 193.515 33.2636C193.741 33.1174 197.817 30.4858 203.432 32.0427Z" fill="#49796B"/>
<path d="M203.432 32.0426C202.705 37.693 198.629 40.3246 198.403 40.4708C194.401 43.0546 193.468 38.4754 188.939 41.3994C193.468 38.4754 191.777 39.5636 195.779 36.9798C196.005 36.8336 197.772 35.7918 203.432 32.0426Z" fill="#A9BA9D"/>
<line x1="188.821" y1="18.1706" x2="188.82" y2="85.522" stroke="#49796B" stroke-width="3"/>
<path d="M194.854 12.4526C194.854 18.9666 188.957 24.2473 188.957 24.2473C188.957 24.0185 183.06 18.9666 183.06 12.4526C183.06 5.93851 188.957 0.657837 188.957 0.657837C188.957 0.657837 194.854 5.93851 194.854 12.4526Z" fill="#B76E78"/>
<path d="M190.432 11.0834C192.66 17.2046 188.924 24.1839 188.924 24.1839C188.846 23.9689 181.576 21.2387 179.348 15.1175C177.121 8.99627 180.856 2.01703 180.856 2.01703C180.856 2.01703 188.204 4.96222 190.432 11.0834Z" fill="#D07B87"/>
<path d="M198.501 15.1175C196.273 21.2387 188.925 24.1839 188.925 24.1839C189.003 23.9689 185.189 17.2046 187.417 11.0834C189.645 4.96221 196.993 2.01703 196.993 2.01703C196.993 2.01703 200.729 8.99627 198.501 15.1175Z" fill="#A56269"/>
<path d="M49.4474 18.322V85.522H46.5674V18.322H49.4474ZM88.9034 18.322L56.6474 50.386L91.9754 85.522H87.8474L52.5194 50.386L84.7754 18.322H88.9034ZM104.479 21.202V18.322H168.703L144.223 85.618L131.743 51.442L119.359 85.618L94.8786 18.322H97.9506L119.359 77.17L131.743 42.994L144.223 77.17L164.575 21.202H104.479ZM212.158 82.642H247.486L227.134 26.674L205.726 85.522H202.654L227.134 18.226L251.614 85.522H212.158V82.642ZM305.652 73.234C303.924 77.458 301.492 80.722 298.356 83.026C295.22 85.33 290.516 86.482 284.244 86.482C276.372 86.482 270.676 84.082 267.156 79.282C263.636 74.418 261.876 66.866 261.876 56.626V47.218C261.876 36.978 263.636 29.458 267.156 24.658C270.676 19.794 276.372 17.362 284.244 17.362C290.516 17.362 295.22 18.514 298.356 20.818C301.492 23.122 303.924 26.386 305.652 30.61L303.06 31.858C301.588 28.146 299.508 25.298 296.82 23.314C294.132 21.266 289.94 20.242 284.244 20.242C281.108 20.242 278.42 20.658 276.18 21.49C273.94 22.258 271.924 23.602 270.132 25.522C268.34 27.442 266.996 30.226 266.1 33.874C265.204 37.458 264.756 41.906 264.756 47.218V56.626C264.756 61.938 265.204 66.418 266.1 70.066C266.996 73.65 268.34 76.402 270.132 78.322C271.924 80.242 273.94 81.618 276.18 82.45C278.42 83.218 281.108 83.602 284.244 83.602C289.94 83.602 294.132 82.61 296.82 80.626C299.508 78.578 301.588 75.698 303.06 71.986L305.652 73.234ZM324.364 85.522H321.484V18.322H324.364V85.522ZM346.207 82.642H381.535L361.183 26.674L339.775 85.522H336.703L361.183 18.226L385.663 85.522H346.207V82.642ZM405.526 82.642H432.022L420.406 50.77L425.782 47.698C430.198 45.266 432.406 41.394 432.406 36.082C432.406 26.162 424.854 21.202 409.75 21.202H400.918V85.522H398.038V18.322H409.75C418.198 18.322 424.566 19.89 428.854 23.026C433.142 26.098 435.286 30.45 435.286 36.082C435.286 42.482 432.598 47.186 427.222 50.194L423.958 52.018L436.15 85.522H405.526V82.642ZM459.459 82.642H489.219L454.851 23.218V85.522H451.971V18.322H455.331L491.235 80.434V18.322H494.115V85.522H459.459V82.642ZM517.128 85.522H514.248V18.322H517.128V85.522ZM538.972 82.642H574.3L553.948 26.674L532.54 85.522H529.468L553.948 18.226L578.428 85.522H538.972V82.642Z" fill="black"/>
</svg>
