<svg width="47" height="47" viewBox="0 0 47 47" fill="none" xmlns="http://www.w3.org/2000/svg">
<g clip-path="url(#clip0)">
<path d="M44.1863 34.1192C41.7775 34.1192 39.4471 33.7275 37.2733 33.0225C36.5879 32.7875 35.8242 32.9638 35.2954 33.4925L32.2208 37.3504C26.6788 34.7067 21.4892 29.7129 18.7279 23.975L22.5467 20.7242C23.0754 20.1758 23.2321 19.4121 23.0167 18.7267C22.2921 16.5529 21.92 14.2225 21.92 11.8138C21.92 10.7563 21.0388 9.875 19.9813 9.875H13.2054C12.1479 9.875 10.875 10.345 10.875 11.8138C10.875 30.0067 26.0129 45.125 44.1863 45.125C45.5767 45.125 46.125 43.8913 46.125 42.8142V36.0579C46.125 35.0004 45.2438 34.1192 44.1863 34.1192Z" fill="#303030"/>
</g>
<defs>
<clipPath id="clip0">
<rect width="47" height="47" fill="white"/>
</clipPath>
</defs>
</svg>
